<?xml version="1.0" encoding="UTF-8" standalone="no"?>
<!DOCTYPE svg PUBLIC "-//W3C//DTD SVG 1.1//EN"
 "http://www.w3.org/Graphics/SVG/1.1/DTD/svg11.dtd">
<!-- Generated by graphviz version 14.1.1 (20251213.1925)
 -->
<!-- Pages: 1 -->
<svg width="1624pt" height="210pt"
 viewBox="0.00 0.00 1624.00 210.00" xmlns="http://www.w3.org/2000/svg" xmlns:xlink="http://www.w3.org/1999/xlink">
<g id="graph0" class="graph" transform="scale(1 1) rotate(0) translate(4 206)">
<polygon fill="white" stroke="none" points="-4,4 -4,-206 1619.5,-206 1619.5,4 -4,4"/>
<!-- 1527711666192 -->
<g id="node1" class="node">
<title>1527711666192</title>
<polygon fill="none" stroke="black" points="1087.5,-109.5 1087.5,-145.5 1296.75,-145.5 1296.75,-109.5 1087.5,-109.5"/>
<text xml:space="preserve" text-anchor="middle" x="1107.88" y="-122.7" font-family="Times New Roman,serif" font-size="14.00">logit</text>
<polyline fill="none" stroke="black" points="1128.25,-110 1128.25,-145.5"/>
<text xml:space="preserve" text-anchor="middle" x="1170" y="-122.7" font-family="Times New Roman,serif" font-size="14.00">data: 0.8814</text>
<polyline fill="none" stroke="black" points="1211.75,-110 1211.75,-145.5"/>
<text xml:space="preserve" text-anchor="middle" x="1254.25" y="-122.7" font-family="Times New Roman,serif" font-size="14.00">grad: 0.5000</text>
</g>
<!-- 1527711666256tanh -->
<g id="node4" class="node">
<title>1527711666256tanh</title>
<ellipse fill="none" stroke="black" cx="1359.75" cy="-127.5" rx="27" ry="18"/>
<text xml:space="preserve" text-anchor="middle" x="1359.75" y="-122.45" font-family="Times New Roman,serif" font-size="14.00">tanh</text>
</g>
<!-- 1527711666192&#45;&gt;1527711666256tanh -->
<g id="edge7" class="edge">
<title>1527711666192&#45;&gt;1527711666256tanh</title>
<path fill="none" stroke="black" d="M1297.08,-127.5C1305.51,-127.5 1313.62,-127.5 1321.04,-127.5"/>
<polygon fill="black" stroke="black" points="1320.92,-131 1330.92,-127.5 1320.92,-124 1320.92,-131"/>
</g>
<!-- 1527711666192+ -->
<g id="node2" class="node">
<title>1527711666192+</title>
<ellipse fill="none" stroke="black" cx="1024.5" cy="-127.5" rx="27" ry="18"/>
<text xml:space="preserve" text-anchor="middle" x="1024.5" y="-122.45" font-family="Times New Roman,serif" font-size="14.00">+</text>
</g>
<!-- 1527711666192+&#45;&gt;1527711666192 -->
<g id="edge1" class="edge">
<title>1527711666192+&#45;&gt;1527711666192</title>
<path fill="none" stroke="black" d="M1051.74,-127.5C1058.86,-127.5 1067.05,-127.5 1075.81,-127.5"/>
<polygon fill="black" stroke="black" points="1075.67,-131 1085.67,-127.5 1075.67,-124 1075.67,-131"/>
</g>
<!-- 1527711666256 -->
<g id="node3" class="node">
<title>1527711666256</title>
<polygon fill="none" stroke="black" points="1422.75,-109.5 1422.75,-145.5 1615.5,-145.5 1615.5,-109.5 1422.75,-109.5"/>
<text xml:space="preserve" text-anchor="middle" x="1434.88" y="-122.7" font-family="Times New Roman,serif" font-size="14.00">L</text>
<polyline fill="none" stroke="black" points="1447,-110 1447,-145.5"/>
<text xml:space="preserve" text-anchor="middle" x="1488.75" y="-122.7" font-family="Times New Roman,serif" font-size="14.00">data: 0.7071</text>
<polyline fill="none" stroke="black" points="1530.5,-110 1530.5,-145.5"/>
<text xml:space="preserve" text-anchor="middle" x="1573" y="-122.7" font-family="Times New Roman,serif" font-size="14.00">grad: 1.0000</text>
</g>
<!-- 1527711666256tanh&#45;&gt;1527711666256 -->
<g id="edge2" class="edge">
<title>1527711666256tanh&#45;&gt;1527711666256</title>
<path fill="none" stroke="black" d="M1387.09,-127.5C1394.23,-127.5 1402.42,-127.5 1411.14,-127.5"/>
<polygon fill="black" stroke="black" points="1410.92,-131 1420.92,-127.5 1410.92,-124 1410.92,-131"/>
</g>
<!-- 1527704739472 -->
<g id="node5" class="node">
<title>1527704739472</title>
<polygon fill="none" stroke="black" points="2.25,-55.5 2.25,-91.5 203.25,-91.5 203.25,-55.5 2.25,-55.5"/>
<text xml:space="preserve" text-anchor="middle" x="18.5" y="-68.7" font-family="Times New Roman,serif" font-size="14.00">w2</text>
<polyline fill="none" stroke="black" points="34.75,-56 34.75,-91.5"/>
<text xml:space="preserve" text-anchor="middle" x="76.5" y="-68.7" font-family="Times New Roman,serif" font-size="14.00">data: 1.0000</text>
<polyline fill="none" stroke="black" points="118.25,-56 118.25,-91.5"/>
<text xml:space="preserve" text-anchor="middle" x="160.75" y="-68.7" font-family="Times New Roman,serif" font-size="14.00">grad: 0.0000</text>
</g>
<!-- 1527711666064* -->
<g id="node13" class="node">
<title>1527711666064*</title>
<ellipse fill="none" stroke="black" cx="268.5" cy="-73.5" rx="27" ry="18"/>
<text xml:space="preserve" text-anchor="middle" x="268.5" y="-68.45" font-family="Times New Roman,serif" font-size="14.00">*</text>
</g>
<!-- 1527704739472&#45;&gt;1527711666064* -->
<g id="edge10" class="edge">
<title>1527704739472&#45;&gt;1527711666064*</title>
<path fill="none" stroke="black" d="M203.72,-73.5C212.83,-73.5 221.62,-73.5 229.62,-73.5"/>
<polygon fill="black" stroke="black" points="229.57,-77 239.57,-73.5 229.57,-70 229.57,-77"/>
</g>
<!-- 1527704738512 -->
<g id="node6" class="node">
<title>1527704738512</title>
<polygon fill="none" stroke="black" points="3.75,-0.5 3.75,-36.5 201.75,-36.5 201.75,-0.5 3.75,-0.5"/>
<text xml:space="preserve" text-anchor="middle" x="18.5" y="-13.7" font-family="Times New Roman,serif" font-size="14.00">x2</text>
<polyline fill="none" stroke="black" points="33.25,-1 33.25,-36.5"/>
<text xml:space="preserve" text-anchor="middle" x="75" y="-13.7" font-family="Times New Roman,serif" font-size="14.00">data: 0.0000</text>
<polyline fill="none" stroke="black" points="116.75,-1 116.75,-36.5"/>
<text xml:space="preserve" text-anchor="middle" x="159.25" y="-13.7" font-family="Times New Roman,serif" font-size="14.00">grad: 0.5000</text>
</g>
<!-- 1527704738512&#45;&gt;1527711666064* -->
<g id="edge11" class="edge">
<title>1527704738512&#45;&gt;1527711666064*</title>
<path fill="none" stroke="black" d="M175.86,-36.97C185.88,-39.94 196,-43.14 205.5,-46.5 215.47,-50.02 226.11,-54.41 235.7,-58.62"/>
<polygon fill="black" stroke="black" points="234.06,-61.72 244.61,-62.62 236.92,-55.33 234.06,-61.72"/>
</g>
<!-- 1527711665872 -->
<g id="node7" class="node">
<title>1527711665872</title>
<polygon fill="none" stroke="black" points="331.5,-110.5 331.5,-146.5 557.25,-146.5 557.25,-110.5 331.5,-110.5"/>
<text xml:space="preserve" text-anchor="middle" x="357.88" y="-123.7" font-family="Times New Roman,serif" font-size="14.00">x1*w1</text>
<polyline fill="none" stroke="black" points="384.25,-111 384.25,-146.5"/>
<text xml:space="preserve" text-anchor="middle" x="428.25" y="-123.7" font-family="Times New Roman,serif" font-size="14.00">data: &#45;6.0000</text>
<polyline fill="none" stroke="black" points="472.25,-111 472.25,-146.5"/>
<text xml:space="preserve" text-anchor="middle" x="514.75" y="-123.7" font-family="Times New Roman,serif" font-size="14.00">grad: 0.5000</text>
</g>
<!-- 1527711666128+ -->
<g id="node15" class="node">
<title>1527711666128+</title>
<ellipse fill="none" stroke="black" cx="620.25" cy="-100.5" rx="27" ry="18"/>
<text xml:space="preserve" text-anchor="middle" x="620.25" y="-95.45" font-family="Times New Roman,serif" font-size="14.00">+</text>
</g>
<!-- 1527711665872&#45;&gt;1527711666128+ -->
<g id="edge9" class="edge">
<title>1527711665872&#45;&gt;1527711666128+</title>
<path fill="none" stroke="black" d="M557.46,-110.45C566.26,-109.03 574.68,-107.68 582.32,-106.45"/>
<polygon fill="black" stroke="black" points="582.81,-109.91 592.13,-104.87 581.7,-103 582.81,-109.91"/>
</g>
<!-- 1527711665872* -->
<g id="node8" class="node">
<title>1527711665872*</title>
<ellipse fill="none" stroke="black" cx="268.5" cy="-128.5" rx="27" ry="18"/>
<text xml:space="preserve" text-anchor="middle" x="268.5" y="-123.45" font-family="Times New Roman,serif" font-size="14.00">*</text>
</g>
<!-- 1527711665872*&#45;&gt;1527711665872 -->
<g id="edge3" class="edge">
<title>1527711665872*&#45;&gt;1527711665872</title>
<path fill="none" stroke="black" d="M295.91,-128.5C302.99,-128.5 311.13,-128.5 319.88,-128.5"/>
<polygon fill="black" stroke="black" points="319.74,-132 329.74,-128.5 319.74,-125 319.74,-132"/>
</g>
<!-- 1527704735696 -->
<g id="node9" class="node">
<title>1527704735696</title>
<polygon fill="none" stroke="black" points="0,-165.5 0,-201.5 205.5,-201.5 205.5,-165.5 0,-165.5"/>
<text xml:space="preserve" text-anchor="middle" x="16.25" y="-178.7" font-family="Times New Roman,serif" font-size="14.00">w1</text>
<polyline fill="none" stroke="black" points="32.5,-166 32.5,-201.5"/>
<text xml:space="preserve" text-anchor="middle" x="76.5" y="-178.7" font-family="Times New Roman,serif" font-size="14.00">data: &#45;3.0000</text>
<polyline fill="none" stroke="black" points="120.5,-166 120.5,-201.5"/>
<text xml:space="preserve" text-anchor="middle" x="163" y="-178.7" font-family="Times New Roman,serif" font-size="14.00">grad: 1.0000</text>
</g>
<!-- 1527704735696&#45;&gt;1527711665872* -->
<g id="edge8" class="edge">
<title>1527704735696&#45;&gt;1527711665872*</title>
<path fill="none" stroke="black" d="M178.92,-165.06C187.95,-162.4 196.98,-159.53 205.5,-156.5 215.61,-152.9 226.34,-148.34 236,-143.94"/>
<polygon fill="black" stroke="black" points="237.39,-147.15 244.97,-139.75 234.42,-140.81 237.39,-147.15"/>
</g>
<!-- 1527704830928 -->
<g id="node10" class="node">
<title>1527704830928</title>
<polygon fill="none" stroke="black" points="1.5,-110.5 1.5,-146.5 204,-146.5 204,-110.5 1.5,-110.5"/>
<text xml:space="preserve" text-anchor="middle" x="16.25" y="-123.7" font-family="Times New Roman,serif" font-size="14.00">x1</text>
<polyline fill="none" stroke="black" points="31,-111 31,-146.5"/>
<text xml:space="preserve" text-anchor="middle" x="72.75" y="-123.7" font-family="Times New Roman,serif" font-size="14.00">data: 2.0000</text>
<polyline fill="none" stroke="black" points="114.5,-111 114.5,-146.5"/>
<text xml:space="preserve" text-anchor="middle" x="159.25" y="-123.7" font-family="Times New Roman,serif" font-size="14.00">grad: &#45;1.5000</text>
</g>
<!-- 1527704830928&#45;&gt;1527711665872* -->
<g id="edge6" class="edge">
<title>1527704830928&#45;&gt;1527711665872*</title>
<path fill="none" stroke="black" d="M204.19,-128.5C213.25,-128.5 221.98,-128.5 229.92,-128.5"/>
<polygon fill="black" stroke="black" points="229.79,-132 239.79,-128.5 229.79,-125 229.79,-132"/>
</g>
<!-- 1527704738640 -->
<g id="node11" class="node">
<title>1527704738640</title>
<polygon fill="none" stroke="black" points="726.75,-137.5 726.75,-173.5 918,-173.5 918,-137.5 726.75,-137.5"/>
<text xml:space="preserve" text-anchor="middle" x="738.12" y="-150.7" font-family="Times New Roman,serif" font-size="14.00">b</text>
<polyline fill="none" stroke="black" points="749.5,-138 749.5,-173.5"/>
<text xml:space="preserve" text-anchor="middle" x="791.25" y="-150.7" font-family="Times New Roman,serif" font-size="14.00">data: 6.8814</text>
<polyline fill="none" stroke="black" points="833,-138 833,-173.5"/>
<text xml:space="preserve" text-anchor="middle" x="875.5" y="-150.7" font-family="Times New Roman,serif" font-size="14.00">grad: 0.5000</text>
</g>
<!-- 1527704738640&#45;&gt;1527711666192+ -->
<g id="edge14" class="edge">
<title>1527704738640&#45;&gt;1527711666192+</title>
<path fill="none" stroke="black" d="M918.46,-142.2C942.68,-138.81 967.29,-135.37 986.59,-132.66"/>
<polygon fill="black" stroke="black" points="986.96,-136.15 996.38,-131.29 985.99,-129.21 986.96,-136.15"/>
</g>
<!-- 1527711666064 -->
<g id="node12" class="node">
<title>1527711666064</title>
<polygon fill="none" stroke="black" points="333.75,-55.5 333.75,-91.5 555,-91.5 555,-55.5 333.75,-55.5"/>
<text xml:space="preserve" text-anchor="middle" x="360.12" y="-68.7" font-family="Times New Roman,serif" font-size="14.00">x2*w2</text>
<polyline fill="none" stroke="black" points="386.5,-56 386.5,-91.5"/>
<text xml:space="preserve" text-anchor="middle" x="428.25" y="-68.7" font-family="Times New Roman,serif" font-size="14.00">data: 0.0000</text>
<polyline fill="none" stroke="black" points="470,-56 470,-91.5"/>
<text xml:space="preserve" text-anchor="middle" x="512.5" y="-68.7" font-family="Times New Roman,serif" font-size="14.00">grad: 0.5000</text>
</g>
<!-- 1527711666064&#45;&gt;1527711666128+ -->
<g id="edge12" class="edge">
<title>1527711666064&#45;&gt;1527711666128+</title>
<path fill="none" stroke="black" d="M555.49,-90.6C565,-92.08 574.11,-93.49 582.32,-94.77"/>
<polygon fill="black" stroke="black" points="581.73,-98.22 592.15,-96.29 582.8,-91.3 581.73,-98.22"/>
</g>
<!-- 1527711666064*&#45;&gt;1527711666064 -->
<g id="edge4" class="edge">
<title>1527711666064*&#45;&gt;1527711666064</title>
<path fill="none" stroke="black" d="M295.91,-73.5C303.56,-73.5 312.44,-73.5 321.99,-73.5"/>
<polygon fill="black" stroke="black" points="321.96,-77 331.96,-73.5 321.96,-70 321.96,-77"/>
</g>
<!-- 1527711666128 -->
<g id="node14" class="node">
<title>1527711666128</title>
<polygon fill="none" stroke="black" points="683.25,-82.5 683.25,-118.5 961.5,-118.5 961.5,-82.5 683.25,-82.5"/>
<text xml:space="preserve" text-anchor="middle" x="735.88" y="-95.7" font-family="Times New Roman,serif" font-size="14.00">x1*w1 + x2*w2</text>
<polyline fill="none" stroke="black" points="788.5,-83 788.5,-118.5"/>
<text xml:space="preserve" text-anchor="middle" x="832.5" y="-95.7" font-family="Times New Roman,serif" font-size="14.00">data: &#45;6.0000</text>
<polyline fill="none" stroke="black" points="876.5,-83 876.5,-118.5"/>
<text xml:space="preserve" text-anchor="middle" x="919" y="-95.7" font-family="Times New Roman,serif" font-size="14.00">grad: 0.5000</text>
</g>
<!-- 1527711666128&#45;&gt;1527711666192+ -->
<g id="edge13" class="edge">
<title>1527711666128&#45;&gt;1527711666192+</title>
<path fill="none" stroke="black" d="M960.45,-118.99C969.73,-120.25 978.51,-121.43 986.41,-122.5"/>
<polygon fill="black" stroke="black" points="985.79,-125.94 996.17,-123.81 986.72,-119.01 985.79,-125.94"/>
</g>
<!-- 1527711666128+&#45;&gt;1527711666128 -->
<g id="edge5" class="edge">
<title>1527711666128+&#45;&gt;1527711666128</title>
<path fill="none" stroke="black" d="M647.41,-100.5C654.42,-100.5 662.51,-100.5 671.3,-100.5"/>
<polygon fill="black" stroke="black" points="671.25,-104 681.25,-100.5 671.25,-97 671.25,-104"/>
</g>
</g>
</svg>
