<?xml version="1.0" encoding="UTF-8" standalone="no"?>
<!DOCTYPE svg PUBLIC "-//W3C//DTD SVG 1.1//EN"
 "http://www.w3.org/Graphics/SVG/1.1/DTD/svg11.dtd">
<!-- Generated by graphviz version 14.1.1 (20251213.1925)
 -->
<!-- Pages: 1 -->
<svg width="529pt" height="100pt"
 viewBox="0.00 0.00 529.00 100.00" xmlns="http://www.w3.org/2000/svg" xmlns:xlink="http://www.w3.org/1999/xlink">
<g id="graph0" class="graph" transform="scale(1 1) rotate(0) translate(4 96)">
<polygon fill="white" stroke="none" points="-4,4 -4,-96 525.25,-96 525.25,4 -4,4"/>
<!-- 1511107154960 -->
<g id="node1" class="node">
<title>1511107154960</title>
<polygon fill="none" stroke="black" points="324,-27.5 324,-63.5 521.25,-63.5 521.25,-27.5 324,-27.5"/>
<text xml:space="preserve" text-anchor="middle" x="335" y="-40.7" font-family="Times New Roman,serif" font-size="14.00">z</text>
<polyline fill="none" stroke="black" points="346,-28 346,-63.5"/>
<text xml:space="preserve" text-anchor="middle" x="391.12" y="-40.7" font-family="Times New Roman,serif" font-size="14.00">data: 15.0000</text>
<polyline fill="none" stroke="black" points="436.25,-28 436.25,-63.5"/>
<text xml:space="preserve" text-anchor="middle" x="478.75" y="-40.7" font-family="Times New Roman,serif" font-size="14.00">grad: 0.0000</text>
</g>
<!-- 1511107154960+ -->
<g id="node2" class="node">
<title>1511107154960+</title>
<ellipse fill="none" stroke="black" cx="261" cy="-45.5" rx="27" ry="18"/>
<text xml:space="preserve" text-anchor="middle" x="261" y="-40.45" font-family="Times New Roman,serif" font-size="14.00">+</text>
</g>
<!-- 1511107154960+&#45;&gt;1511107154960 -->
<g id="edge1" class="edge">
<title>1511107154960+&#45;&gt;1511107154960</title>
<path fill="none" stroke="black" d="M288.36,-45.5C295.46,-45.5 303.6,-45.5 312.28,-45.5"/>
<polygon fill="black" stroke="black" points="312.02,-49 322.02,-45.5 312.02,-42 312.02,-49"/>
</g>
<!-- 1511107152528 -->
<g id="node3" class="node">
<title>1511107152528</title>
<polygon fill="none" stroke="black" points="3.38,-55.5 3.38,-91.5 194.62,-91.5 194.62,-55.5 3.38,-55.5"/>
<text xml:space="preserve" text-anchor="middle" x="14.75" y="-68.7" font-family="Times New Roman,serif" font-size="14.00">y</text>
<polyline fill="none" stroke="black" points="26.12,-56 26.12,-91.5"/>
<text xml:space="preserve" text-anchor="middle" x="67.88" y="-68.7" font-family="Times New Roman,serif" font-size="14.00">data: 5.0000</text>
<polyline fill="none" stroke="black" points="109.62,-56 109.62,-91.5"/>
<text xml:space="preserve" text-anchor="middle" x="152.12" y="-68.7" font-family="Times New Roman,serif" font-size="14.00">grad: 0.0000</text>
</g>
<!-- 1511107152528&#45;&gt;1511107154960+ -->
<g id="edge2" class="edge">
<title>1511107152528&#45;&gt;1511107154960+</title>
<path fill="none" stroke="black" d="M194.92,-56.89C204.91,-55.14 214.59,-53.45 223.28,-51.93"/>
<polygon fill="black" stroke="black" points="223.73,-55.4 232.98,-50.23 222.53,-48.5 223.73,-55.4"/>
</g>
<!-- 1511115026128 -->
<g id="node4" class="node">
<title>1511115026128</title>
<polygon fill="none" stroke="black" points="0,-0.5 0,-36.5 198,-36.5 198,-0.5 0,-0.5"/>
<text xml:space="preserve" text-anchor="middle" x="11.38" y="-13.7" font-family="Times New Roman,serif" font-size="14.00">x</text>
<polyline fill="none" stroke="black" points="22.75,-1 22.75,-36.5"/>
<text xml:space="preserve" text-anchor="middle" x="67.88" y="-13.7" font-family="Times New Roman,serif" font-size="14.00">data: 10.0000</text>
<polyline fill="none" stroke="black" points="113,-1 113,-36.5"/>
<text xml:space="preserve" text-anchor="middle" x="155.5" y="-13.7" font-family="Times New Roman,serif" font-size="14.00">grad: 0.0000</text>
</g>
<!-- 1511115026128&#45;&gt;1511107154960+ -->
<g id="edge3" class="edge">
<title>1511115026128&#45;&gt;1511107154960+</title>
<path fill="none" stroke="black" d="M198.14,-35.06C206.99,-36.55 215.52,-37.99 223.28,-39.3"/>
<polygon fill="black" stroke="black" points="222.47,-42.72 232.91,-40.93 223.63,-35.81 222.47,-42.72"/>
</g>
</g>
</svg>
