<?xml version="1.0" encoding="UTF-8" standalone="no"?>
<!DOCTYPE svg PUBLIC "-//W3C//DTD SVG 1.1//EN"
 "http://www.w3.org/Graphics/SVG/1.1/DTD/svg11.dtd">
<!-- Generated by graphviz version 14.1.1 (20251213.1925)
 -->
<!-- Pages: 1 -->
<svg width="527pt" height="45pt"
 viewBox="0.00 0.00 527.00 45.00" xmlns="http://www.w3.org/2000/svg" xmlns:xlink="http://www.w3.org/1999/xlink">
<g id="graph0" class="graph" transform="scale(1 1) rotate(0) translate(4 41)">
<polygon fill="white" stroke="none" points="-4,4 -4,-41 523,-41 523,4 -4,4"/>
<!-- 1825517949904 -->
<g id="node1" class="node">
<title>1825517949904</title>
<polygon fill="none" stroke="black" points="0,-0.5 0,-36.5 198,-36.5 198,-0.5 0,-0.5"/>
<text xml:space="preserve" text-anchor="middle" x="11.38" y="-13.7" font-family="Times New Roman,serif" font-size="14.00">x</text>
<polyline fill="none" stroke="black" points="22.75,-1 22.75,-36.5"/>
<text xml:space="preserve" text-anchor="middle" x="67.88" y="-13.7" font-family="Times New Roman,serif" font-size="14.00">data: 10.0000</text>
<polyline fill="none" stroke="black" points="113,-1 113,-36.5"/>
<text xml:space="preserve" text-anchor="middle" x="155.5" y="-13.7" font-family="Times New Roman,serif" font-size="14.00">grad: 2.0000</text>
</g>
<!-- 1825517948624+ -->
<g id="node3" class="node">
<title>1825517948624+</title>
<ellipse fill="none" stroke="black" cx="261" cy="-18.5" rx="27" ry="18"/>
<text xml:space="preserve" text-anchor="middle" x="261" y="-13.45" font-family="Times New Roman,serif" font-size="14.00">+</text>
</g>
<!-- 1825517949904&#45;&gt;1825517948624+ -->
<g id="edge2" class="edge">
<title>1825517949904&#45;&gt;1825517948624+</title>
<path fill="none" stroke="black" d="M198.14,-18.5C206.61,-18.5 214.8,-18.5 222.29,-18.5"/>
<polygon fill="black" stroke="black" points="222.29,-22 232.29,-18.5 222.29,-15 222.29,-22"/>
</g>
<!-- 1825517948624 -->
<g id="node2" class="node">
<title>1825517948624</title>
<polygon fill="none" stroke="black" points="324,-0.5 324,-36.5 519,-36.5 519,-0.5 324,-0.5"/>
<text xml:space="preserve" text-anchor="middle" x="333.88" y="-13.7" font-family="Times New Roman,serif" font-size="14.00"> </text>
<polyline fill="none" stroke="black" points="343.75,-1 343.75,-36.5"/>
<text xml:space="preserve" text-anchor="middle" x="388.88" y="-13.7" font-family="Times New Roman,serif" font-size="14.00">data: 20.0000</text>
<polyline fill="none" stroke="black" points="434,-1 434,-36.5"/>
<text xml:space="preserve" text-anchor="middle" x="476.5" y="-13.7" font-family="Times New Roman,serif" font-size="14.00">grad: 1.0000</text>
</g>
<!-- 1825517948624+&#45;&gt;1825517948624 -->
<g id="edge1" class="edge">
<title>1825517948624+&#45;&gt;1825517948624</title>
<path fill="none" stroke="black" d="M288.17,-18.5C295.34,-18.5 303.59,-18.5 312.38,-18.5"/>
<polygon fill="black" stroke="black" points="312.26,-22 322.26,-18.5 312.26,-15 312.26,-22"/>
</g>
</g>
</svg>
