<?xml version="1.0" encoding="UTF-8" standalone="no"?>
<!DOCTYPE svg PUBLIC "-//W3C//DTD SVG 1.1//EN"
 "http://www.w3.org/Graphics/SVG/1.1/DTD/svg11.dtd">
<!-- Generated by graphviz version 14.1.1 (20251213.1925)
 -->
<!-- Pages: 1 -->
<svg width="461pt" height="127pt"
 viewBox="0.00 0.00 461.00 127.00" xmlns="http://www.w3.org/2000/svg" xmlns:xlink="http://www.w3.org/1999/xlink">
<g id="graph0" class="graph" transform="scale(1 1) rotate(0) translate(4 123)">
<polygon fill="white" stroke="none" points="-4,4 -4,-123 457,-123 457,4 -4,4"/>
<!-- 1342739535376 -->
<g id="node1" class="node">
<title>1342739535376</title>
<polygon fill="none" stroke="black" points="193.75,-82.5 193.75,-118.5 263.75,-118.5 263.75,-82.5 193.75,-82.5"/>
<text xml:space="preserve" text-anchor="middle" x="228.75" y="-95.7" font-family="Times New Roman,serif" font-size="14.00">data: 10.0</text>
</g>
<!-- 1342739536208+ -->
<g id="node6" class="node">
<title>1342739536208+</title>
<ellipse fill="none" stroke="black" cx="326.75" cy="-72.5" rx="27" ry="18"/>
<text xml:space="preserve" text-anchor="middle" x="326.75" y="-67.45" font-family="Times New Roman,serif" font-size="14.00">+</text>
</g>
<!-- 1342739535376&#45;&gt;1342739536208+ -->
<g id="edge6" class="edge">
<title>1342739535376&#45;&gt;1342739536208+</title>
<path fill="none" stroke="black" d="M264.14,-90.47C272.74,-87.96 281.98,-85.27 290.62,-82.75"/>
<polygon fill="black" stroke="black" points="291.46,-86.15 300.08,-79.99 289.5,-79.43 291.46,-86.15"/>
</g>
<!-- 1342739532816 -->
<g id="node2" class="node">
<title>1342739532816</title>
<polygon fill="none" stroke="black" points="0,-55.5 0,-91.5 67.75,-91.5 67.75,-55.5 0,-55.5"/>
<text xml:space="preserve" text-anchor="middle" x="33.88" y="-68.7" font-family="Times New Roman,serif" font-size="14.00">data: &#45;3.0</text>
</g>
<!-- 1342739536144* -->
<g id="node4" class="node">
<title>1342739536144*</title>
<ellipse fill="none" stroke="black" cx="130.75" cy="-45.5" rx="27" ry="18"/>
<text xml:space="preserve" text-anchor="middle" x="130.75" y="-40.45" font-family="Times New Roman,serif" font-size="14.00">*</text>
</g>
<!-- 1342739532816&#45;&gt;1342739536144* -->
<g id="edge3" class="edge">
<title>1342739532816&#45;&gt;1342739536144*</title>
<path fill="none" stroke="black" d="M68.06,-63.71C76.68,-61.16 85.99,-58.41 94.7,-55.84"/>
<polygon fill="black" stroke="black" points="95.65,-59.21 104.25,-53.03 93.67,-52.5 95.65,-59.21"/>
</g>
<!-- 1342739536144 -->
<g id="node3" class="node">
<title>1342739536144</title>
<polygon fill="none" stroke="black" points="194.88,-27.5 194.88,-63.5 262.62,-63.5 262.62,-27.5 194.88,-27.5"/>
<text xml:space="preserve" text-anchor="middle" x="228.75" y="-40.7" font-family="Times New Roman,serif" font-size="14.00">data: &#45;6.0</text>
</g>
<!-- 1342739536144&#45;&gt;1342739536208+ -->
<g id="edge4" class="edge">
<title>1342739536144&#45;&gt;1342739536208+</title>
<path fill="none" stroke="black" d="M263.06,-54.87C271.89,-57.35 281.46,-60.04 290.4,-62.56"/>
<polygon fill="black" stroke="black" points="289.25,-65.87 299.82,-65.21 291.14,-59.13 289.25,-65.87"/>
</g>
<!-- 1342739536144*&#45;&gt;1342739536144 -->
<g id="edge1" class="edge">
<title>1342739536144*&#45;&gt;1342739536144</title>
<path fill="none" stroke="black" d="M158.24,-45.5C165.94,-45.5 174.58,-45.5 183.08,-45.5"/>
<polygon fill="black" stroke="black" points="182.97,-49 192.97,-45.5 182.97,-42 182.97,-49"/>
</g>
<!-- 1342739536208 -->
<g id="node5" class="node">
<title>1342739536208</title>
<polygon fill="none" stroke="black" points="389.75,-54.5 389.75,-90.5 453,-90.5 453,-54.5 389.75,-54.5"/>
<text xml:space="preserve" text-anchor="middle" x="421.38" y="-67.7" font-family="Times New Roman,serif" font-size="14.00">data: 4.0</text>
</g>
<!-- 1342739536208+&#45;&gt;1342739536208 -->
<g id="edge2" class="edge">
<title>1342739536208+&#45;&gt;1342739536208</title>
<path fill="none" stroke="black" d="M354.04,-72.5C361.53,-72.5 369.89,-72.5 378.07,-72.5"/>
<polygon fill="black" stroke="black" points="377.91,-76 387.91,-72.5 377.91,-69 377.91,-76"/>
</g>
<!-- 1342746299344 -->
<g id="node7" class="node">
<title>1342746299344</title>
<polygon fill="none" stroke="black" points="2.25,-0.5 2.25,-36.5 65.5,-36.5 65.5,-0.5 2.25,-0.5"/>
<text xml:space="preserve" text-anchor="middle" x="33.88" y="-13.7" font-family="Times New Roman,serif" font-size="14.00">data: 2.0</text>
</g>
<!-- 1342746299344&#45;&gt;1342739536144* -->
<g id="edge5" class="edge">
<title>1342746299344&#45;&gt;1342739536144*</title>
<path fill="none" stroke="black" d="M65.94,-27.34C75.08,-29.94 85.15,-32.81 94.54,-35.48"/>
<polygon fill="black" stroke="black" points="93.5,-38.82 104.08,-38.19 95.42,-32.09 93.5,-38.82"/>
</g>
</g>
</svg>
