<?xml version="1.0" encoding="UTF-8" standalone="no"?>
<!DOCTYPE svg PUBLIC "-//W3C//DTD SVG 1.1//EN"
 "http://www.w3.org/Graphics/SVG/1.1/DTD/svg11.dtd">
<!-- Generated by graphviz version 14.1.1 (20251213.1925)
 -->
<!-- Pages: 1 -->
<svg width="749pt" height="154pt"
 viewBox="0.00 0.00 749.00 154.00" xmlns="http://www.w3.org/2000/svg" xmlns:xlink="http://www.w3.org/1999/xlink">
<g id="graph0" class="graph" transform="scale(1 1) rotate(0) translate(4 150)">
<polygon fill="white" stroke="none" points="-4,4 -4,-150 744.75,-150 744.75,4 -4,4"/>
<!-- 1644698031760 -->
<g id="node1" class="node">
<title>1644698031760</title>
<polygon fill="none" stroke="black" points="435.62,-109.5 435.62,-145.5 519.38,-145.5 519.38,-109.5 435.62,-109.5"/>
<text xml:space="preserve" text-anchor="middle" x="445.88" y="-122.7" font-family="Times New Roman,serif" font-size="14.00">f</text>
<polyline fill="none" stroke="black" points="456.12,-110 456.12,-145.5"/>
<text xml:space="preserve" text-anchor="middle" x="487.75" y="-122.7" font-family="Times New Roman,serif" font-size="14.00">data: 5.0</text>
</g>
<!-- 1644704943568* -->
<g id="node8" class="node">
<title>1644704943568*</title>
<ellipse fill="none" stroke="black" cx="583.5" cy="-99.5" rx="27" ry="18"/>
<text xml:space="preserve" text-anchor="middle" x="583.5" y="-94.45" font-family="Times New Roman,serif" font-size="14.00">*</text>
</g>
<!-- 1644698031760&#45;&gt;1644704943568* -->
<g id="edge5" class="edge">
<title>1644698031760&#45;&gt;1644704943568*</title>
<path fill="none" stroke="black" d="M519.6,-116.43C528.6,-114.01 538.06,-111.46 546.83,-109.1"/>
<polygon fill="black" stroke="black" points="547.65,-112.51 556.4,-106.53 545.83,-105.75 547.65,-112.51"/>
</g>
<!-- 1644698029200 -->
<g id="node2" class="node">
<title>1644698029200</title>
<polygon fill="none" stroke="black" points="216.5,-82.5 216.5,-118.5 308.5,-118.5 308.5,-82.5 216.5,-82.5"/>
<text xml:space="preserve" text-anchor="middle" x="227.5" y="-95.7" font-family="Times New Roman,serif" font-size="14.00">c</text>
<polyline fill="none" stroke="black" points="238.5,-83 238.5,-118.5"/>
<text xml:space="preserve" text-anchor="middle" x="273.5" y="-95.7" font-family="Times New Roman,serif" font-size="14.00">data: 10.0</text>
</g>
<!-- 1644698032592+ -->
<g id="node10" class="node">
<title>1644698032592+</title>
<ellipse fill="none" stroke="black" cx="371.5" cy="-72.5" rx="27" ry="18"/>
<text xml:space="preserve" text-anchor="middle" x="371.5" y="-67.45" font-family="Times New Roman,serif" font-size="14.00">+</text>
</g>
<!-- 1644698029200&#45;&gt;1644698032592+ -->
<g id="edge8" class="edge">
<title>1644698029200&#45;&gt;1644698032592+</title>
<path fill="none" stroke="black" d="M308.88,-88.63C317.57,-86.35 326.56,-84 334.89,-81.82"/>
<polygon fill="black" stroke="black" points="335.5,-85.28 344.29,-79.36 333.73,-78.5 335.5,-85.28"/>
</g>
<!-- 1644695275216 -->
<g id="node3" class="node">
<title>1644695275216</title>
<polygon fill="none" stroke="black" points="0,-55.5 0,-91.5 90.5,-91.5 90.5,-55.5 0,-55.5"/>
<text xml:space="preserve" text-anchor="middle" x="11.38" y="-68.7" font-family="Times New Roman,serif" font-size="14.00">b</text>
<polyline fill="none" stroke="black" points="22.75,-56 22.75,-91.5"/>
<text xml:space="preserve" text-anchor="middle" x="56.62" y="-68.7" font-family="Times New Roman,serif" font-size="14.00">data: &#45;3.0</text>
</g>
<!-- 1644698032528* -->
<g id="node6" class="node">
<title>1644698032528*</title>
<ellipse fill="none" stroke="black" cx="153.5" cy="-45.5" rx="27" ry="18"/>
<text xml:space="preserve" text-anchor="middle" x="153.5" y="-40.45" font-family="Times New Roman,serif" font-size="14.00">*</text>
</g>
<!-- 1644695275216&#45;&gt;1644698032528* -->
<g id="edge6" class="edge">
<title>1644695275216&#45;&gt;1644698032528*</title>
<path fill="none" stroke="black" d="M90.69,-61.79C99.45,-59.48 108.53,-57.09 116.95,-54.87"/>
<polygon fill="black" stroke="black" points="117.68,-58.3 126.46,-52.36 115.9,-51.53 117.68,-58.3"/>
</g>
<!-- 1644704886480 -->
<g id="node4" class="node">
<title>1644704886480</title>
<polygon fill="none" stroke="black" points="2.62,-0.5 2.62,-36.5 87.88,-36.5 87.88,-0.5 2.62,-0.5"/>
<text xml:space="preserve" text-anchor="middle" x="13.62" y="-13.7" font-family="Times New Roman,serif" font-size="14.00">a</text>
<polyline fill="none" stroke="black" points="24.62,-1 24.62,-36.5"/>
<text xml:space="preserve" text-anchor="middle" x="56.25" y="-13.7" font-family="Times New Roman,serif" font-size="14.00">data: 2.0</text>
</g>
<!-- 1644704886480&#45;&gt;1644698032528* -->
<g id="edge7" class="edge">
<title>1644704886480&#45;&gt;1644698032528*</title>
<path fill="none" stroke="black" d="M88.24,-29.17C97.7,-31.58 107.66,-34.11 116.83,-36.44"/>
<polygon fill="black" stroke="black" points="115.92,-39.82 126.47,-38.89 117.64,-33.03 115.92,-39.82"/>
</g>
<!-- 1644698032528 -->
<g id="node5" class="node">
<title>1644698032528</title>
<polygon fill="none" stroke="black" points="217.62,-27.5 217.62,-63.5 307.38,-63.5 307.38,-27.5 217.62,-27.5"/>
<text xml:space="preserve" text-anchor="middle" x="228.62" y="-40.7" font-family="Times New Roman,serif" font-size="14.00">e</text>
<polyline fill="none" stroke="black" points="239.62,-28 239.62,-63.5"/>
<text xml:space="preserve" text-anchor="middle" x="273.5" y="-40.7" font-family="Times New Roman,serif" font-size="14.00">data: &#45;6.0</text>
</g>
<!-- 1644698032528&#45;&gt;1644698032592+ -->
<g id="edge9" class="edge">
<title>1644698032528&#45;&gt;1644698032592+</title>
<path fill="none" stroke="black" d="M307.64,-56.64C316.68,-58.92 326.1,-61.3 334.8,-63.49"/>
<polygon fill="black" stroke="black" points="333.73,-66.83 344.28,-65.88 335.44,-60.04 333.73,-66.83"/>
</g>
<!-- 1644698032528*&#45;&gt;1644698032528 -->
<g id="edge1" class="edge">
<title>1644698032528*&#45;&gt;1644698032528</title>
<path fill="none" stroke="black" d="M180.95,-45.5C188.61,-45.5 197.27,-45.5 206.01,-45.5"/>
<polygon fill="black" stroke="black" points="205.94,-49 215.94,-45.5 205.94,-42 205.94,-49"/>
</g>
<!-- 1644704943568 -->
<g id="node7" class="node">
<title>1644704943568</title>
<polygon fill="none" stroke="black" points="646.5,-81.5 646.5,-117.5 740.75,-117.5 740.75,-81.5 646.5,-81.5"/>
<text xml:space="preserve" text-anchor="middle" x="658.62" y="-94.7" font-family="Times New Roman,serif" font-size="14.00">L</text>
<polyline fill="none" stroke="black" points="670.75,-82 670.75,-117.5"/>
<text xml:space="preserve" text-anchor="middle" x="705.75" y="-94.7" font-family="Times New Roman,serif" font-size="14.00">data: 20.0</text>
</g>
<!-- 1644704943568*&#45;&gt;1644704943568 -->
<g id="edge2" class="edge">
<title>1644704943568*&#45;&gt;1644704943568</title>
<path fill="none" stroke="black" d="M610.95,-99.5C618.26,-99.5 626.48,-99.5 634.83,-99.5"/>
<polygon fill="black" stroke="black" points="634.7,-103 644.7,-99.5 634.7,-96 634.7,-103"/>
</g>
<!-- 1644698032592 -->
<g id="node9" class="node">
<title>1644698032592</title>
<polygon fill="none" stroke="black" points="434.5,-54.5 434.5,-90.5 520.5,-90.5 520.5,-54.5 434.5,-54.5"/>
<text xml:space="preserve" text-anchor="middle" x="445.88" y="-67.7" font-family="Times New Roman,serif" font-size="14.00">d</text>
<polyline fill="none" stroke="black" points="457.25,-55 457.25,-90.5"/>
<text xml:space="preserve" text-anchor="middle" x="488.88" y="-67.7" font-family="Times New Roman,serif" font-size="14.00">data: 4.0</text>
</g>
<!-- 1644698032592&#45;&gt;1644704943568* -->
<g id="edge4" class="edge">
<title>1644698032592&#45;&gt;1644704943568*</title>
<path fill="none" stroke="black" d="M520.8,-83.48C529.46,-85.73 538.49,-88.08 546.89,-90.26"/>
<polygon fill="black" stroke="black" points="545.83,-93.6 556.39,-92.72 547.59,-86.82 545.83,-93.6"/>
</g>
<!-- 1644698032592+&#45;&gt;1644698032592 -->
<g id="edge3" class="edge">
<title>1644698032592+&#45;&gt;1644698032592</title>
<path fill="none" stroke="black" d="M398.74,-72.5C406.11,-72.5 414.39,-72.5 422.74,-72.5"/>
<polygon fill="black" stroke="black" points="422.56,-76 432.56,-72.5 422.56,-69 422.56,-76"/>
</g>
</g>
</svg>
