<?xml version="1.0" encoding="UTF-8" standalone="no"?>
<!DOCTYPE svg PUBLIC "-//W3C//DTD SVG 1.1//EN"
 "http://www.w3.org/Graphics/SVG/1.1/DTD/svg11.dtd">
<!-- Generated by graphviz version 14.1.1 (20251213.1925)
 -->
<!-- Pages: 1 -->
<svg width="963pt" height="128pt"
 viewBox="0.00 0.00 963.00 128.00" xmlns="http://www.w3.org/2000/svg" xmlns:xlink="http://www.w3.org/1999/xlink">
<g id="graph0" class="graph" transform="scale(1 1) rotate(0) translate(4 124)">
<polygon fill="white" stroke="none" points="-4,4 -4,-124 958.75,-124 958.75,4 -4,4"/>
<!-- 2236307561040 -->
<g id="node1" class="node">
<title>2236307561040</title>
<polygon fill="none" stroke="black" points="542.62,-82.5 542.62,-118.5 679.88,-118.5 679.88,-82.5 542.62,-82.5"/>
<text xml:space="preserve" text-anchor="middle" x="552.88" y="-95.7" font-family="Times New Roman,serif" font-size="14.00">f</text>
<polyline fill="none" stroke="black" points="563.12,-83 563.12,-118.5"/>
<text xml:space="preserve" text-anchor="middle" x="594.75" y="-95.7" font-family="Times New Roman,serif" font-size="14.00">data: 5.0</text>
<polyline fill="none" stroke="black" points="626.38,-83 626.38,-118.5"/>
<text xml:space="preserve" text-anchor="middle" x="653.12" y="-95.7" font-family="Times New Roman,serif" font-size="14.00">0.0000</text>
</g>
<!-- 2236314472400* -->
<g id="node10" class="node">
<title>2236314472400*</title>
<ellipse fill="none" stroke="black" cx="744" cy="-72.5" rx="27" ry="18"/>
<text xml:space="preserve" text-anchor="middle" x="744" y="-67.45" font-family="Times New Roman,serif" font-size="14.00">*</text>
</g>
<!-- 2236307561040&#45;&gt;2236314472400* -->
<g id="edge8" class="edge">
<title>2236307561040&#45;&gt;2236314472400*</title>
<path fill="none" stroke="black" d="M680.31,-85.93C689.42,-83.98 698.46,-82.04 706.72,-80.27"/>
<polygon fill="black" stroke="black" points="707.28,-83.73 716.32,-78.21 705.81,-76.88 707.28,-83.73"/>
</g>
<!-- 2236307561104 -->
<g id="node2" class="node">
<title>2236307561104</title>
<polygon fill="none" stroke="black" points="271.12,-55.5 271.12,-91.5 414.38,-91.5 414.38,-55.5 271.12,-55.5"/>
<text xml:space="preserve" text-anchor="middle" x="282.12" y="-68.7" font-family="Times New Roman,serif" font-size="14.00">e</text>
<polyline fill="none" stroke="black" points="293.12,-56 293.12,-91.5"/>
<text xml:space="preserve" text-anchor="middle" x="327" y="-68.7" font-family="Times New Roman,serif" font-size="14.00">data: &#45;6.0</text>
<polyline fill="none" stroke="black" points="360.88,-56 360.88,-91.5"/>
<text xml:space="preserve" text-anchor="middle" x="387.62" y="-68.7" font-family="Times New Roman,serif" font-size="14.00">0.0000</text>
</g>
<!-- 2236314472336+ -->
<g id="node8" class="node">
<title>2236314472336+</title>
<ellipse fill="none" stroke="black" cx="478.5" cy="-45.5" rx="27" ry="18"/>
<text xml:space="preserve" text-anchor="middle" x="478.5" y="-40.45" font-family="Times New Roman,serif" font-size="14.00">+</text>
</g>
<!-- 2236307561104&#45;&gt;2236314472336+ -->
<g id="edge9" class="edge">
<title>2236307561104&#45;&gt;2236314472336+</title>
<path fill="none" stroke="black" d="M414.54,-58.68C423.74,-56.75 432.84,-54.85 441.14,-53.11"/>
<polygon fill="black" stroke="black" points="441.72,-56.57 450.79,-51.09 440.29,-49.71 441.72,-56.57"/>
</g>
<!-- 2236307561104* -->
<g id="node3" class="node">
<title>2236307561104*</title>
<ellipse fill="none" stroke="black" cx="207" cy="-73.5" rx="27" ry="18"/>
<text xml:space="preserve" text-anchor="middle" x="207" y="-68.45" font-family="Times New Roman,serif" font-size="14.00">*</text>
</g>
<!-- 2236307561104*&#45;&gt;2236307561104 -->
<g id="edge1" class="edge">
<title>2236307561104*&#45;&gt;2236307561104</title>
<path fill="none" stroke="black" d="M234.42,-73.5C241.87,-73.5 250.38,-73.5 259.28,-73.5"/>
<polygon fill="black" stroke="black" points="259.2,-77 269.2,-73.5 259.2,-70 259.2,-77"/>
</g>
<!-- 2236314324752 -->
<g id="node4" class="node">
<title>2236314324752</title>
<polygon fill="none" stroke="black" points="2.62,-83.5 2.62,-119.5 141.38,-119.5 141.38,-83.5 2.62,-83.5"/>
<text xml:space="preserve" text-anchor="middle" x="13.62" y="-96.7" font-family="Times New Roman,serif" font-size="14.00">a</text>
<polyline fill="none" stroke="black" points="24.62,-84 24.62,-119.5"/>
<text xml:space="preserve" text-anchor="middle" x="56.25" y="-96.7" font-family="Times New Roman,serif" font-size="14.00">data: 2.0</text>
<polyline fill="none" stroke="black" points="87.88,-84 87.88,-119.5"/>
<text xml:space="preserve" text-anchor="middle" x="114.62" y="-96.7" font-family="Times New Roman,serif" font-size="14.00">0.0000</text>
</g>
<!-- 2236314324752&#45;&gt;2236307561104* -->
<g id="edge5" class="edge">
<title>2236314324752&#45;&gt;2236307561104*</title>
<path fill="none" stroke="black" d="M141.84,-87.01C151.42,-84.99 160.95,-82.98 169.61,-81.16"/>
<polygon fill="black" stroke="black" points="170.26,-84.6 179.32,-79.12 168.82,-77.75 170.26,-84.6"/>
</g>
<!-- 2236307557712 -->
<g id="node5" class="node">
<title>2236307557712</title>
<polygon fill="none" stroke="black" points="0,-28.5 0,-64.5 144,-64.5 144,-28.5 0,-28.5"/>
<text xml:space="preserve" text-anchor="middle" x="11.38" y="-41.7" font-family="Times New Roman,serif" font-size="14.00">b</text>
<polyline fill="none" stroke="black" points="22.75,-29 22.75,-64.5"/>
<text xml:space="preserve" text-anchor="middle" x="56.62" y="-41.7" font-family="Times New Roman,serif" font-size="14.00">data: &#45;3.0</text>
<polyline fill="none" stroke="black" points="90.5,-29 90.5,-64.5"/>
<text xml:space="preserve" text-anchor="middle" x="117.25" y="-41.7" font-family="Times New Roman,serif" font-size="14.00">0.0000</text>
</g>
<!-- 2236307557712&#45;&gt;2236307561104* -->
<g id="edge6" class="edge">
<title>2236307557712&#45;&gt;2236307561104*</title>
<path fill="none" stroke="black" d="M144.17,-60.95C152.97,-62.73 161.66,-64.5 169.62,-66.11"/>
<polygon fill="black" stroke="black" points="168.7,-69.5 179.2,-68.06 170.09,-62.64 168.7,-69.5"/>
</g>
<!-- 2236307560272 -->
<g id="node6" class="node">
<title>2236307560272</title>
<polygon fill="none" stroke="black" points="270,-0.5 270,-36.5 415.5,-36.5 415.5,-0.5 270,-0.5"/>
<text xml:space="preserve" text-anchor="middle" x="281" y="-13.7" font-family="Times New Roman,serif" font-size="14.00">c</text>
<polyline fill="none" stroke="black" points="292,-1 292,-36.5"/>
<text xml:space="preserve" text-anchor="middle" x="327" y="-13.7" font-family="Times New Roman,serif" font-size="14.00">data: 10.0</text>
<polyline fill="none" stroke="black" points="362,-1 362,-36.5"/>
<text xml:space="preserve" text-anchor="middle" x="388.75" y="-13.7" font-family="Times New Roman,serif" font-size="14.00">0.0000</text>
</g>
<!-- 2236307560272&#45;&gt;2236314472336+ -->
<g id="edge4" class="edge">
<title>2236307560272&#45;&gt;2236314472336+</title>
<path fill="none" stroke="black" d="M415.71,-33.03C424.52,-34.81 433.21,-36.56 441.16,-38.17"/>
<polygon fill="black" stroke="black" points="440.24,-41.55 450.74,-40.1 441.63,-34.69 440.24,-41.55"/>
</g>
<!-- 2236314472336 -->
<g id="node7" class="node">
<title>2236314472336</title>
<polygon fill="none" stroke="black" points="541.5,-27.5 541.5,-63.5 681,-63.5 681,-27.5 541.5,-27.5"/>
<text xml:space="preserve" text-anchor="middle" x="552.88" y="-40.7" font-family="Times New Roman,serif" font-size="14.00">d</text>
<polyline fill="none" stroke="black" points="564.25,-28 564.25,-63.5"/>
<text xml:space="preserve" text-anchor="middle" x="595.88" y="-40.7" font-family="Times New Roman,serif" font-size="14.00">data: 4.0</text>
<polyline fill="none" stroke="black" points="627.5,-28 627.5,-63.5"/>
<text xml:space="preserve" text-anchor="middle" x="654.25" y="-40.7" font-family="Times New Roman,serif" font-size="14.00">0.0000</text>
</g>
<!-- 2236314472336&#45;&gt;2236314472400* -->
<g id="edge7" class="edge">
<title>2236314472336&#45;&gt;2236314472400*</title>
<path fill="none" stroke="black" d="M681.45,-59.79C690.18,-61.59 698.81,-63.38 706.73,-65.01"/>
<polygon fill="black" stroke="black" points="705.76,-68.38 716.26,-66.98 707.18,-61.53 705.76,-68.38"/>
</g>
<!-- 2236314472336+&#45;&gt;2236314472336 -->
<g id="edge2" class="edge">
<title>2236314472336+&#45;&gt;2236314472336</title>
<path fill="none" stroke="black" d="M505.96,-45.5C513.12,-45.5 521.26,-45.5 529.76,-45.5"/>
<polygon fill="black" stroke="black" points="529.57,-49 539.57,-45.5 529.57,-42 529.57,-49"/>
</g>
<!-- 2236314472400 -->
<g id="node9" class="node">
<title>2236314472400</title>
<polygon fill="none" stroke="black" points="807,-54.5 807,-90.5 954.75,-90.5 954.75,-54.5 807,-54.5"/>
<text xml:space="preserve" text-anchor="middle" x="819.12" y="-67.7" font-family="Times New Roman,serif" font-size="14.00">L</text>
<polyline fill="none" stroke="black" points="831.25,-55 831.25,-90.5"/>
<text xml:space="preserve" text-anchor="middle" x="866.25" y="-67.7" font-family="Times New Roman,serif" font-size="14.00">data: 20.0</text>
<polyline fill="none" stroke="black" points="901.25,-55 901.25,-90.5"/>
<text xml:space="preserve" text-anchor="middle" x="928" y="-67.7" font-family="Times New Roman,serif" font-size="14.00">0.0000</text>
</g>
<!-- 2236314472400*&#45;&gt;2236314472400 -->
<g id="edge3" class="edge">
<title>2236314472400*&#45;&gt;2236314472400</title>
<path fill="none" stroke="black" d="M771.33,-72.5C778.47,-72.5 786.61,-72.5 795.14,-72.5"/>
<polygon fill="black" stroke="black" points="795.02,-76 805.02,-72.5 795.02,-69 795.02,-76"/>
</g>
</g>
</svg>
