<?xml version="1.0" encoding="UTF-8" standalone="no"?>
<!DOCTYPE svg PUBLIC "-//W3C//DTD SVG 1.1//EN"
 "http://www.w3.org/Graphics/SVG/1.1/DTD/svg11.dtd">
<!-- Generated by graphviz version 14.1.1 (20251213.1925)
 -->
<!-- Pages: 1 -->
<svg width="1177pt" height="128pt"
 viewBox="0.00 0.00 1177.00 128.00" xmlns="http://www.w3.org/2000/svg" xmlns:xlink="http://www.w3.org/1999/xlink">
<g id="graph0" class="graph" transform="scale(1 1) rotate(0) translate(4 124)">
<polygon fill="white" stroke="none" points="-4,4 -4,-124 1172.5,-124 1172.5,4 -4,4"/>
<!-- 1766335406096 -->
<g id="node1" class="node">
<title>1766335406096</title>
<polygon fill="none" stroke="black" points="651.75,-27.5 651.75,-63.5 843,-63.5 843,-27.5 651.75,-27.5"/>
<text xml:space="preserve" text-anchor="middle" x="663.12" y="-40.7" font-family="Times New Roman,serif" font-size="14.00">d</text>
<polyline fill="none" stroke="black" points="674.5,-28 674.5,-63.5"/>
<text xml:space="preserve" text-anchor="middle" x="716.25" y="-40.7" font-family="Times New Roman,serif" font-size="14.00">data: 4.0000</text>
<polyline fill="none" stroke="black" points="758,-28 758,-63.5"/>
<text xml:space="preserve" text-anchor="middle" x="800.5" y="-40.7" font-family="Times New Roman,serif" font-size="14.00">grad: 5.0000</text>
</g>
<!-- 1766342463888* -->
<g id="node10" class="node">
<title>1766342463888*</title>
<ellipse fill="none" stroke="black" cx="906" cy="-72.5" rx="27" ry="18"/>
<text xml:space="preserve" text-anchor="middle" x="906" y="-67.45" font-family="Times New Roman,serif" font-size="14.00">*</text>
</g>
<!-- 1766335406096&#45;&gt;1766342463888* -->
<g id="edge7" class="edge">
<title>1766335406096&#45;&gt;1766342463888*</title>
<path fill="none" stroke="black" d="M843.1,-61.83C851.91,-63.35 860.43,-64.82 868.19,-66.15"/>
<polygon fill="black" stroke="black" points="867.38,-69.57 877.83,-67.82 868.57,-62.67 867.38,-69.57"/>
</g>
<!-- 1766335406096+ -->
<g id="node2" class="node">
<title>1766335406096+</title>
<ellipse fill="none" stroke="black" cx="588.75" cy="-45.5" rx="27" ry="18"/>
<text xml:space="preserve" text-anchor="middle" x="588.75" y="-40.45" font-family="Times New Roman,serif" font-size="14.00">+</text>
</g>
<!-- 1766335406096+&#45;&gt;1766335406096 -->
<g id="edge1" class="edge">
<title>1766335406096+&#45;&gt;1766335406096</title>
<path fill="none" stroke="black" d="M615.97,-45.5C623.13,-45.5 631.36,-45.5 640.12,-45.5"/>
<polygon fill="black" stroke="black" points="639.96,-49 649.96,-45.5 639.96,-42 639.96,-49"/>
</g>
<!-- 1766335407248 -->
<g id="node3" class="node">
<title>1766335407248</title>
<polygon fill="none" stroke="black" points="329.62,-55.5 329.62,-91.5 524.62,-91.5 524.62,-55.5 329.62,-55.5"/>
<text xml:space="preserve" text-anchor="middle" x="340.62" y="-68.7" font-family="Times New Roman,serif" font-size="14.00">e</text>
<polyline fill="none" stroke="black" points="351.62,-56 351.62,-91.5"/>
<text xml:space="preserve" text-anchor="middle" x="395.62" y="-68.7" font-family="Times New Roman,serif" font-size="14.00">data: &#45;6.0000</text>
<polyline fill="none" stroke="black" points="439.62,-56 439.62,-91.5"/>
<text xml:space="preserve" text-anchor="middle" x="482.12" y="-68.7" font-family="Times New Roman,serif" font-size="14.00">grad: 5.0000</text>
</g>
<!-- 1766335407248&#45;&gt;1766335406096+ -->
<g id="edge9" class="edge">
<title>1766335407248&#45;&gt;1766335406096+</title>
<path fill="none" stroke="black" d="M525.12,-56.49C534.14,-54.9 542.85,-53.38 550.76,-51.99"/>
<polygon fill="black" stroke="black" points="551.36,-55.44 560.6,-50.26 550.15,-48.54 551.36,-55.44"/>
</g>
<!-- 1766335407248* -->
<g id="node4" class="node">
<title>1766335407248*</title>
<ellipse fill="none" stroke="black" cx="265.5" cy="-73.5" rx="27" ry="18"/>
<text xml:space="preserve" text-anchor="middle" x="265.5" y="-68.45" font-family="Times New Roman,serif" font-size="14.00">*</text>
</g>
<!-- 1766335407248*&#45;&gt;1766335407248 -->
<g id="edge2" class="edge">
<title>1766335407248*&#45;&gt;1766335407248</title>
<path fill="none" stroke="black" d="M292.86,-73.5C300.29,-73.5 308.86,-73.5 318,-73.5"/>
<polygon fill="black" stroke="black" points="317.88,-77 327.88,-73.5 317.88,-70 317.88,-77"/>
</g>
<!-- 1766335402640 -->
<g id="node5" class="node">
<title>1766335402640</title>
<polygon fill="none" stroke="black" points="328.5,-0.5 328.5,-36.5 525.75,-36.5 525.75,-0.5 328.5,-0.5"/>
<text xml:space="preserve" text-anchor="middle" x="339.5" y="-13.7" font-family="Times New Roman,serif" font-size="14.00">c</text>
<polyline fill="none" stroke="black" points="350.5,-1 350.5,-36.5"/>
<text xml:space="preserve" text-anchor="middle" x="395.62" y="-13.7" font-family="Times New Roman,serif" font-size="14.00">data: 10.0000</text>
<polyline fill="none" stroke="black" points="440.75,-1 440.75,-36.5"/>
<text xml:space="preserve" text-anchor="middle" x="483.25" y="-13.7" font-family="Times New Roman,serif" font-size="14.00">grad: 5.0000</text>
</g>
<!-- 1766335402640&#45;&gt;1766335406096+ -->
<g id="edge5" class="edge">
<title>1766335402640&#45;&gt;1766335406096+</title>
<path fill="none" stroke="black" d="M526.03,-35.06C534.86,-36.55 543.38,-37.99 551.12,-39.3"/>
<polygon fill="black" stroke="black" points="550.28,-42.71 560.72,-40.93 551.44,-35.81 550.28,-42.71"/>
</g>
<!-- 1766335405776 -->
<g id="node6" class="node">
<title>1766335405776</title>
<polygon fill="none" stroke="black" points="0,-83.5 0,-119.5 202.5,-119.5 202.5,-83.5 0,-83.5"/>
<text xml:space="preserve" text-anchor="middle" x="11.38" y="-96.7" font-family="Times New Roman,serif" font-size="14.00">b</text>
<polyline fill="none" stroke="black" points="22.75,-84 22.75,-119.5"/>
<text xml:space="preserve" text-anchor="middle" x="66.75" y="-96.7" font-family="Times New Roman,serif" font-size="14.00">data: &#45;3.0000</text>
<polyline fill="none" stroke="black" points="110.75,-84 110.75,-119.5"/>
<text xml:space="preserve" text-anchor="middle" x="156.62" y="-96.7" font-family="Times New Roman,serif" font-size="14.00">grad: 10.0000</text>
</g>
<!-- 1766335405776&#45;&gt;1766335407248* -->
<g id="edge6" class="edge">
<title>1766335405776&#45;&gt;1766335407248*</title>
<path fill="none" stroke="black" d="M202.7,-84.17C211.57,-82.64 220.11,-81.16 227.86,-79.82"/>
<polygon fill="black" stroke="black" points="228.22,-83.31 237.48,-78.16 227.03,-76.41 228.22,-83.31"/>
</g>
<!-- 1766335482128 -->
<g id="node7" class="node">
<title>1766335482128</title>
<polygon fill="none" stroke="black" points="0.38,-28.5 0.38,-64.5 202.12,-64.5 202.12,-28.5 0.38,-28.5"/>
<text xml:space="preserve" text-anchor="middle" x="11.38" y="-41.7" font-family="Times New Roman,serif" font-size="14.00">a</text>
<polyline fill="none" stroke="black" points="22.38,-29 22.38,-64.5"/>
<text xml:space="preserve" text-anchor="middle" x="64.12" y="-41.7" font-family="Times New Roman,serif" font-size="14.00">data: 2.0000</text>
<polyline fill="none" stroke="black" points="105.88,-29 105.88,-64.5"/>
<text xml:space="preserve" text-anchor="middle" x="154" y="-41.7" font-family="Times New Roman,serif" font-size="14.00">grad: &#45;15.0000</text>
</g>
<!-- 1766335482128&#45;&gt;1766335407248* -->
<g id="edge8" class="edge">
<title>1766335482128&#45;&gt;1766335407248*</title>
<path fill="none" stroke="black" d="M202.23,-63.14C211.15,-64.62 219.75,-66.05 227.57,-67.35"/>
<polygon fill="black" stroke="black" points="226.83,-70.78 237.26,-68.97 227.97,-63.87 226.83,-70.78"/>
</g>
<!-- 1766342463824 -->
<g id="node8" class="node">
<title>1766342463824</title>
<polygon fill="none" stroke="black" points="652.88,-82.5 652.88,-118.5 841.88,-118.5 841.88,-82.5 652.88,-82.5"/>
<text xml:space="preserve" text-anchor="middle" x="663.12" y="-95.7" font-family="Times New Roman,serif" font-size="14.00">f</text>
<polyline fill="none" stroke="black" points="673.38,-83 673.38,-118.5"/>
<text xml:space="preserve" text-anchor="middle" x="715.12" y="-95.7" font-family="Times New Roman,serif" font-size="14.00">data: 5.0000</text>
<polyline fill="none" stroke="black" points="756.88,-83 756.88,-118.5"/>
<text xml:space="preserve" text-anchor="middle" x="799.38" y="-95.7" font-family="Times New Roman,serif" font-size="14.00">grad: 4.0000</text>
</g>
<!-- 1766342463824&#45;&gt;1766342463888* -->
<g id="edge4" class="edge">
<title>1766342463824&#45;&gt;1766342463888*</title>
<path fill="none" stroke="black" d="M842.2,-83.73C851.39,-82.08 860.28,-80.49 868.35,-79.05"/>
<polygon fill="black" stroke="black" points="868.79,-82.53 878.02,-77.32 867.56,-75.64 868.79,-82.53"/>
</g>
<!-- 1766342463888 -->
<g id="node9" class="node">
<title>1766342463888</title>
<polygon fill="none" stroke="black" points="969,-54.5 969,-90.5 1168.5,-90.5 1168.5,-54.5 969,-54.5"/>
<text xml:space="preserve" text-anchor="middle" x="981.12" y="-67.7" font-family="Times New Roman,serif" font-size="14.00">L</text>
<polyline fill="none" stroke="black" points="993.25,-55 993.25,-90.5"/>
<text xml:space="preserve" text-anchor="middle" x="1038.38" y="-67.7" font-family="Times New Roman,serif" font-size="14.00">data: 20.0000</text>
<polyline fill="none" stroke="black" points="1083.5,-55 1083.5,-90.5"/>
<text xml:space="preserve" text-anchor="middle" x="1126" y="-67.7" font-family="Times New Roman,serif" font-size="14.00">grad: 1.0000</text>
</g>
<!-- 1766342463888*&#45;&gt;1766342463888 -->
<g id="edge3" class="edge">
<title>1766342463888*&#45;&gt;1766342463888</title>
<path fill="none" stroke="black" d="M933.19,-72.5C940.32,-72.5 948.51,-72.5 957.27,-72.5"/>
<polygon fill="black" stroke="black" points="957.1,-76 967.1,-72.5 957.1,-69 957.1,-76"/>
</g>
</g>
</svg>
